<svg width="94" height="15" viewBox="0 0 94 15" fill="none" xmlns="http://www.w3.org/2000/svg">
<path d="M28 0L30.0206 5.18237H36.5595L31.2694 8.38525L33.2901 13.5676L28 10.3647L22.7099 13.5676L24.7306 8.38525L19.4405 5.18237H25.9794L28 0Z" fill="#FFE600"/>
<path d="M9 0L11.0206 5.18237H17.5595L12.2694 8.38525L14.2901 13.5676L9 10.3647L3.70993 13.5676L5.73056 8.38525L0.440492 5.18237H6.97937L9 0Z" fill="#FFE500"/>
<path d="M85 0L87.0206 5.18237H93.5595L88.2694 8.38525L90.2901 13.5676L85 10.3647L79.7099 13.5676L81.7306 8.38525L76.4405 5.18237H82.9794L85 0Z" fill="#616161"/>
<path d="M66 0L68.0206 5.18237H74.5595L69.2694 8.38525L71.2901 13.5676L66 10.3647L60.7099 13.5676L62.7306 8.38525L57.4405 5.18237H63.9794L66 0Z" fill="#FFE600"/>
<path d="M47 0L49.0206 5.18237H55.5595L50.2694 8.38525L52.2901 13.5676L47 10.3647L41.7099 13.5676L43.7306 8.38525L38.4405 5.18237H44.9794L47 0Z" fill="#FFE600"/>
</svg>
