<svg width="22" height="12" viewBox="0 0 22 12" fill="none" xmlns="http://www.w3.org/2000/svg">
<ellipse cx="11" cy="6" rx="11" ry="6" fill="#B1B1B1"/>
<path d="M21.5 6C21.5 8.76142 16.5228 11.5 11 11.5C5.47715 11.5 0.5 8.76142 0.5 6C0.5 3.23858 5.47715 0.5 11 0.5C16.5228 0.5 21.5 3.23858 21.5 6Z" fill="#616161"/>
<circle cx="11" cy="6" r="5" fill="black"/>
<path d="M15.5 6C15.5 8.76142 13.2091 10.5 11 10.5C8.79086 10.5 6.5 8.76142 6.5 6C6.5 3.23858 8.79086 1.5 11 1.5C13.2091 1.5 15.5 3.23858 15.5 6Z" fill="black"/>
</svg>
